<?xml version="1.0" encoding="UTF-8"?>
<!DOCTYPE svg PUBLIC "-//W3C//DTD SVG 1.1//EN" "http://www.w3.org/Graphics/SVG/1.1/DTD/svg11.dtd">
<!-- Creator: CorelDRAW X7 -->
<svg xmlns="http://www.w3.org/2000/svg" xml:space="preserve" width="200mm" height="200mm" version="1.1" style="shape-rendering:geometricPrecision; text-rendering:geometricPrecision; image-rendering:optimizeQuality; fill-rule:evenodd; clip-rule:evenodd"
viewBox="0 0 20000 20000"
 xmlns:xlink="http://www.w3.org/1999/xlink">
 <defs>
  <style type="text/css">
   <![CDATA[
    .fil0 {fill:#FEFEFE}
   ]]>
  </style>
 </defs>
 <g id="Warstwa_x0020_1">
  <metadata id="CorelCorpID_0Corel-Layer"/>
  <g id="_620169232">
   <path class="fil0" d="M7246 7016l-14 216 -722 46 -295 -296 228 -315c61,-85 181,-104 265,-42l537 389 1 2z"/>
   <path class="fil0" d="M14004 11367c-395,-221 -850,-284 -1296,-234l-252 -252c-1,-5 -3,-10 -4,-15 147,-385 198,-813 128,-1249 -211,-1328 -1459,-2232 -2787,-2021 -170,27 -334,72 -490,131l-436 -435c41,-366 6,-740 -132,-1084 1,-4 3,-8 4,-12 40,-15 79,-29 119,-43l-123 -773c-17,-103 54,-201 157,-217l1001 -160c104,-16 201,55 218,158l123 773c613,8 1201,155 1730,414l460 -634c61,-85 180,-104 265,-42l820 595c85,61 104,180 43,265l-460 634c411,422 733,936 931,1516l773 -124c103,-16 201,55 218,158l159 1001c16,103 -55,201 -158,217l-773 124c-6,454 -88,895 -236,1308l-2 1z"/>
   <path class="fil0" d="M12744 13153l24 -385 722 -46 500 500 0 0 -80 111c-62,85 -181,104 -266,42l-634 -459c-85,82 -174,162 -266,237l0 0z"/>
   <path class="fil0" d="M5339 11284l-159 -1001c-17,-103 54,-201 157,-217l774 -124c5,-404 70,-798 189,-1171l4 0c318,108 656,133 988,96l527 526c-81,314 -101,649 -46,990 211,1328 1459,2232 2786,2021 73,-12 144,-26 214,-44 4,1 9,1 13,1l347 347c-64,566 58,1142 432,1584l1 1 52 327c16,103 -55,201 -158,217l-1001 160c-103,16 -201,-55 -217,-158l-123 -773c-613,-8 -1201,-155 -1730,-414l-460 634c-61,85 -181,104 -265,42l-821 -595c-84,-61 -103,-180 -42,-265l460 -634c-411,-422 -733,-936 -931,-1516l-773 124c-103,16 -201,-55 -218,-158z"/>
   <path class="fil0" d="M5414 6571l989 988 1088 -68 69 -1088 -989 -989c1190,-305 2238,572 2005,1977l4002 4001 0 0 31 32c1405,-233 2282,815 1977,2005l-989 -989 -1088 69 -68 1088 988 989c-1190,305 -2238,-572 -2005,-1977l-4002 -4001 0 0 -31 -32c-1405,233 -2282,-815 -1977,-2005z"/>
  </g>
 </g>
</svg>
